<svg xmlns="http://www.w3.org/2000/svg" version="1.1" xmlns:xlink="http://www.w3.org/1999/xlink" xmlns:svgjs="http://svgjs.com/svgjs" width="1440" height="560" preserveAspectRatio="none" viewBox="0 0 1440 560"><g mask="url(&quot;#SvgjsMask1012&quot;)" fill="none"><path d="M1612.98 281.24C1478.89 286.94 1380.87 513.89 1127.71 510.84 874.55 507.79 814.08 37.65 642.44-7.9" stroke="rgba(51,121,194,0.58)" stroke-width="2"></path><path d="M1623.17 523.07C1441.34 522.41 1207.87 397.39 909.46 383.07 611.05 368.75 680.12 27.48 552.6-7.92" stroke="rgba(51,121,194,0.58)" stroke-width="2"></path><path d="M1562.6 410.33C1399.99 408.02 1273.52 221.92 942.32 214.33 611.13 206.74 491.05-49.71 322.05-55.47" stroke="rgba(51,121,194,0.58)" stroke-width="2"></path><path d="M1644.37 165.6C1452.22 170.52 1201.45 446.45 928.31 445.6 655.17 444.75 709.66 20.15 570.28-34.57" stroke="rgba(51,121,194,0.58)" stroke-width="2"></path><path d="M1633.98 408.27C1488.56 399.86 1403.51 145.59 1119.99 133.87 836.46 122.15 744.45-69.13 605.99-72.96" stroke="rgba(51,121,194,0.58)" stroke-width="2"></path></g><defs><mask id="SvgjsMask1012"><rect width="1440" height="560" fill="#ffffff"></rect></mask></defs></svg>